Coordinates
version=1
nRows=4
nColumns=107
inDegrees=yes

Units are S.I. units (second, meters, Newtons, ...)
If the header above contains a line with 'inDegrees', this indicates whether rotational values are in degrees (yes) or radians (no).

endheader
time	sternoclavicular_r2	sternoclavicular_r3	unrotscap_r3	unrotscap_r2	acromioclavicular_r2	acromioclavicular_r3	acromioclavicular_r1	unrothum_r1	unrothum_r3	unrothum_r2	elv_angle	shoulder_elv	shoulder1_r2	shoulder_rot	elbow_flexion	pro_sup	deviation	flexion	proximal_distal_r1	proximal_distal_r3	cmc_flexion	cmc_abduction	mp_flexion	ip_flexion	mcp2_flexion	mcp2_abduction	pm2_flexion	md2_flexion	mcp3_flexion	mcp3_abduction	pm3_flexion	md3_flexion	mcp4_flexion	mcp4_abduction	pm4_flexion	md4_flexion	mcp5_flexion	mcp5_abduction	pm5_flexion	md5_flexion	bicpt_tx	bicpt_ty	bicpt_tz	bicpt2_tx	bicpt2_ty	bicpt2_tz	ptpt_tx	ptpt_ty	ptpt_tz	FCUpt_tx	FCUpt_ty	FCUpt_tz	EDCpt_tx	EDCpt_ty	EDCpt_tz	APLpt_tx	APLpt_ty	APLpt_tz	FPLpt_tx	FPLpt_ty	FPLpt_tz	FPLpt2_tx	FPLpt2_ty	FPLpt2_tz	PEC1pt2_tx	PEC1pt2_ty	PEC1pt2_tz	PEC1pt3_tx	PEC1pt3_ty	PEC1pt3_tz	PEC2pt2_tx	PEC2pt2_ty	PEC2pt2_tz	PEC2pt3_tx	PEC2pt3_ty	PEC2pt3_tz	PEC3pt2_tx	PEC3pt2_ty	PEC3pt2_tz	PEC3pt3_tx	PEC3pt3_ty	PEC3pt3_tz	DELT2pt2a_tx	DELT2pt2a_ty	DELT2pt2a_tz	DELT2pt2_tx	DELT2pt2_ty	DELT2pt2_tz	LAT1pt2_tx	LAT1pt2_ty	LAT1pt2_tz	LAT1pt3_tx	LAT1pt3_ty	LAT1pt3_tz	LAT2pt2_tx	LAT2pt2_ty	LAT2pt2_tz	LAT2pt3_tx	LAT2pt3_ty	LAT2pt3_tz	LAT3pt2_tx	LAT3pt2_ty	LAT3pt2_tz	LAT3pt3_tx	LAT3pt3_ty	LAT3pt3_tz
      1.46666667	     -0.29813043	      0.12627398	     -0.12627398	      0.29813043	     -0.06036535	      0.48785150	      0.21928589	     -0.21928589	     -0.48785150	      0.06036535	    114.81037130	     70.58502914	     -2.00381899	    -88.27112819	     33.98360814	     88.30112701	      0.42949776	     -1.20117668	      0.43190032	     -0.60058834	    -12.58676790	      2.97449557	    -12.64287321	      3.37292024	     29.46819724	    -14.27940858	     30.01647537	    -21.14823993	     -0.14867806	    -13.27787059	     36.00126618	     19.46914322	    -23.24403787	    -10.19981887	     41.52116990	     26.15871078	    -43.66814893	     -1.73369151	     26.91875379	      4.99456947	      0.00102407	     -0.03149504	     -0.00492739	      0.01399599	     -0.01943181	     -0.00067827	      0.00102554	     -0.06911882	     -0.00716313	      0.01300316	     -0.18215906	      0.00014917	     -0.01059611	      0.00370511	     -0.00083254	      0.00002068	      0.00000827	      0.00004135	      0.00002646	      0.00007939	      0.00004466	     -0.00217314	      0.00040268	      0.00048321	      0.00231362	      0.00811729	      0.00564681	     -0.00756829	      0.01827370	     -0.01733256	      0.00231362	      0.00811729	      0.00564681	      0.00050978	      0.01694042	     -0.00890156	      0.00373092	      0.00451392	      0.01541308	      0.00000000	      0.00665691	      0.00000000	     -0.00662716	     -0.03062609	     -0.00548183	      0.02200117	     -0.00284932	     -0.04451507	     -0.00082349	      0.01380331	     -0.00564681	      0.00227441	      0.01992068	     -0.01646985	     -0.00552917	      0.01196025	     -0.00505860	     -0.01152890	      0.02525378	     -0.02827325	     -0.02164609	      0.01337195	     -0.00678401	     -0.01435230	      0.02917517	     -0.03533176
      1.50000000	     -0.29778834	      0.12612909	     -0.12612909	      0.29778834	     -0.06029608	      0.48729172	      0.21903428	     -0.21903428	     -0.48729172	      0.06029608	    114.87581107	     70.50403698	     -2.00496113	    -88.38112500	     34.17086522	     87.97916548	      0.42952429	     -1.20113273	      0.43191767	     -0.60056637	    -12.33015142	      2.11651868	    -12.36874311	      3.45473671	     29.01317311	    -14.22622328	     29.96025813	    -21.03388203	     -0.37607935	    -13.21255294	     36.18574932	     19.40487174	    -22.93065573	    -10.39187961	     41.82708951	     26.13426775	    -42.82078386	     -2.76302336	     27.26347336	      5.03643087	      0.00103027	     -0.03151650	     -0.00493085	      0.01403084	     -0.01948268	     -0.00073437	      0.00104933	     -0.06910344	     -0.00713719	      0.01296597	     -0.18217016	      0.00013978	     -0.01055748	      0.00368723	     -0.00082183	      0.00002072	      0.00000829	      0.00004144	      0.00002652	      0.00007956	      0.00004475	     -0.00207895	      0.00039272	      0.00047126	      0.00231097	      0.00810797	      0.00564033	     -0.00755961	      0.01825273	     -0.01731267	      0.00231097	      0.00810797	      0.00564033	      0.00050920	      0.01692098	     -0.00889135	      0.00372768	      0.00450874	      0.01540446	      0.00000000	      0.00664156	      0.00000000	     -0.00661955	     -0.03059094	     -0.00546907	      0.02196410	     -0.00285259	     -0.04457854	     -0.00082255	      0.01378747	     -0.00564033	      0.00227180	      0.01989782	     -0.01645096	     -0.00552282	      0.01194653	     -0.00505279	     -0.01151567	      0.02522480	     -0.02824081	     -0.02162126	      0.01335661	     -0.00677623	     -0.01433583	      0.02914169	     -0.03529122
      1.53333333	     -0.29765111	      0.12607096	     -0.12607096	      0.29765111	     -0.06026829	      0.48706716	      0.21893334	     -0.21893334	     -0.48706716	      0.06026829	    114.92588648	     70.47154551	     -2.00583511	    -88.46573517	     34.26640919	     87.78265515	      0.42943058	     -1.20085800	      0.43185639	     -0.60042900	    -12.26633916	      1.45604504	    -11.03027711	      3.29361052	     28.52526352	    -14.14694910	     30.60378781	    -19.84875900	     -0.78163119	    -13.20316665	     37.91207137	     19.31324310	    -22.74096035	    -11.00391269	     43.56951911	     24.11090703	    -42.39232819	     -4.41846365	     28.70390108	      4.97837972	      0.00103343	     -0.03152745	     -0.00493261	      0.01405200	     -0.01950864	     -0.00076854	      0.00106385	     -0.06909405	     -0.00712136	      0.01294328	     -0.18217692	      0.00013409	     -0.01053389	      0.00367633	     -0.00081532	      0.00002099	      0.00000840	      0.00004198	      0.00002687	      0.00008060	      0.00004534	     -0.00205571	      0.00039025	      0.00046829	      0.00230990	      0.00810423	      0.00563773	     -0.00755612	      0.01824432	     -0.01730469	      0.00230990	      0.00810423	      0.00563773	      0.00050896	      0.01691319	     -0.00888725	      0.00372639	      0.00450666	      0.01540100	      0.00000000	      0.00663541	      0.00000000	     -0.00661650	     -0.03057685	     -0.00546396	      0.02193549	     -0.00285511	     -0.04462729	     -0.00082217	      0.01378111	     -0.00563773	      0.00227075	      0.01988865	     -0.01644337	     -0.00552028	      0.01194102	     -0.00505047	     -0.01151036	      0.02521317	     -0.02822779	     -0.02161129	      0.01335045	     -0.00677310	     -0.01432923	      0.02912826	     -0.03527495
      1.56666667	     -0.29741117	      0.12596934	     -0.12596934	      0.29741117	     -0.06021971	      0.48667454	      0.21875686	     -0.21875686	     -0.48667454	      0.06021971	    114.97234978	     70.41473931	     -2.00664605	    -88.49811535	     34.37872964	     87.44596418	      0.42933262	     -1.20036619	      0.43179230	     -0.60018309	    -12.06096747	      1.08041186	    -10.23268744	      2.72544779	     28.48191431	    -14.06791859	     30.10388418	    -18.77770004	     -0.55804294	    -13.20595549	     38.02179478	     19.46708512	    -21.95161571	    -11.29242540	     43.37121818	     24.50598996	    -41.33763312	     -5.61095335	     28.93240631	      4.97685158	      0.00103714	     -0.03154033	     -0.00493468	      0.01408805	     -0.01953915	     -0.00082696	      0.00108873	     -0.06907796	     -0.00709424	      0.01290443	     -0.18218847	      0.00012441	     -0.01049349	      0.00365769	     -0.00080421	      0.00002148	      0.00000859	      0.00004295	      0.00002749	      0.00008247	      0.00004639	     -0.00198194	      0.00038232	      0.00045878	      0.00230804	      0.00809770	      0.00563318	     -0.00755003	      0.01822961	     -0.01729075	      0.00230804	      0.00809770	      0.00563318	      0.00050855	      0.01689955	     -0.00888009	      0.00372412	      0.00450303	      0.01539494	      0.00000000	      0.00662467	      0.00000000	     -0.00661117	     -0.03055220	     -0.00545502	      0.02192451	     -0.00285607	     -0.04464594	     -0.00082151	      0.01377001	     -0.00563318	      0.00226892	      0.01987262	     -0.01643012	     -0.00551583	      0.01193140	     -0.00504639	     -0.01150108	      0.02519285	     -0.02820504	     -0.02159387	      0.01333969	     -0.00676764	     -0.01431768	      0.02910478	     -0.03524652
